<svg width="59" height="53" viewBox="0 0 59 53" fill="none" xmlns="http://www.w3.org/2000/svg">
<g clip-path="url(#clip0_105_632)">
<path d="M57.8679 9.36929L45.0413 4.1843C44.3099 3.88866 43.453 4.03275 42.8912 4.53822L32.7077 13.6861L26.3722 7.99481C26.0114 7.6707 25.522 7.48852 25.0118 7.48852H1.92403C1.14586 7.48852 0.444195 7.90962 0.146545 8.55545C-0.151106 9.20128 0.0134491 9.94463 0.563693 10.439L19.24 27.216V35.7525L7.54782 40.479C6.85733 40.7582 6.41334 41.3751 6.41334 42.0553C6.41334 42.7355 6.85745 43.3523 7.54782 43.6314L20.3743 48.8164C21.1035 49.1111 21.9641 48.9658 22.5244 48.4625C23.5374 47.5525 44.5991 28.6326 45.6122 27.7226C45.965 27.4056 46.1758 26.9589 46.1758 26.5006V17.2482L57.8678 12.5218C59.3767 11.9116 59.3783 9.97972 57.8679 9.36929ZM19.24 44.5672L13.0258 42.0553L19.24 39.5433V44.5672ZM23.0879 43.0676V36.8701V30.6727L29.9868 36.8701L23.0879 43.0676ZM32.7077 34.426L6.56902 10.9454H24.2149L41.5307 26.5003L32.7077 34.426ZM42.3277 16.1304V22.3279L35.4287 16.1304L42.3277 9.93304V16.1304ZM46.1756 13.4573V8.43341L52.3898 10.9453L46.1756 13.4573Z" fill="black"/>
</g>
<defs>
<clipPath id="clip0_105_632">
<rect width="59" height="53" fill="white"/>
</clipPath>
</defs>
</svg>
